<svg width="142" height="49" viewBox="0 0 142 49" fill="none" xmlns="http://www.w3.org/2000/svg">
<path d="M0.507505 2.56884C1.69168 2.73351 2.72361 2.86524 3.60329 2.96404C4.48296 3.06284 5.21039 3.14518 5.78556 3.21105C6.46223 3.27691 7.03741 3.32631 7.51108 3.35925C8.05242 3.42511 8.71218 3.39218 9.49035 3.26045C10.3024 3.12871 11.1651 2.99698 12.0786 2.86524C12.9921 2.70057 13.9395 2.56884 14.9207 2.47003C15.9018 2.37123 16.8492 2.37123 17.7627 2.47003C18.3717 2.5359 19.1499 2.66764 20.0972 2.86524C21.0446 3.06284 22.0426 3.37571 23.0915 3.80385C24.1742 4.23199 25.2569 4.79187 26.3395 5.48348C27.4222 6.17509 28.4034 7.04783 29.2831 8.10171C30.1627 9.1556 30.8902 10.4071 31.4653 11.8562C32.0405 13.3053 32.3619 15.0013 32.4296 16.9444C32.5311 19.8426 32.2604 22.4773 31.6176 24.8485C30.9747 27.2198 29.9766 29.2452 28.6233 30.9248C27.3038 32.6045 25.629 33.9218 23.599 34.8769C21.569 35.832 19.2006 36.3589 16.4939 36.4577C14.4301 36.6224 12.4 36.7706 10.4039 36.9023C9.55802 36.9682 8.66143 37.0176 7.71408 37.0505C6.80057 37.0835 5.88706 37.1164 4.97355 37.1493C4.06004 37.1493 3.18037 37.1329 2.33452 37.0999C1.48868 37.067 0.710507 37.0176 0 36.9517C0.778175 36.5894 1.4041 36.2272 1.87777 35.8649C2.38528 35.5026 2.77436 35.1898 3.04503 34.9263C3.34954 34.597 3.56945 34.3006 3.70479 34.0371C3.77246 33.6748 3.87396 32.9667 4.00929 31.9129C4.11079 31.0236 4.24613 29.7557 4.4153 28.109C4.58447 26.4623 4.78747 24.2228 5.0243 21.3905L5.32881 17.8831C5.49797 15.7094 5.56564 13.931 5.53181 12.5478C5.53181 11.1646 5.49797 10.0777 5.43031 9.28733C5.32881 8.36518 5.19347 7.69004 5.0243 7.2619C4.88897 6.89963 4.63522 6.47149 4.26305 5.97748C3.92471 5.58228 3.45104 5.10474 2.84203 4.54486C2.26686 3.95206 1.48868 3.29338 0.507505 2.56884ZM11.2159 20.7483C11.2835 23.6794 11.4358 25.9354 11.6726 27.5162C11.9433 29.0641 12.2309 30.2168 12.5354 30.9742C12.9076 31.8305 13.3136 32.341 13.7534 32.5057C14.3962 32.5057 15.1237 32.2422 15.9357 31.7152C16.7477 31.1554 17.5428 30.3156 18.3209 29.1958C19.133 28.0761 19.8604 26.6764 20.5032 24.9968C21.1799 23.3171 21.6705 21.3576 21.975 19.1181C22.2795 16.8786 22.1949 14.9025 21.7212 13.19C21.2476 11.4774 20.6216 10.0448 19.8435 8.89213C19.0653 7.70651 18.2702 6.8173 17.4582 6.22449C16.6462 5.59875 16.0372 5.28587 15.6312 5.28587C15.1575 5.28587 14.7346 5.41761 14.3624 5.68108C13.9902 5.91162 13.4658 6.45502 12.7891 7.3113C12.4508 7.77238 12.1463 8.43105 11.8756 9.28733C11.6388 10.0448 11.4358 11.0493 11.2666 12.3008C11.0975 13.5523 11.0467 15.166 11.1144 17.142L11.2159 20.7483Z" fill="#FC814A"/>
<path d="M38.5704 17.7843C38.7396 17.5866 38.8411 17.2244 38.8749 16.6974C38.9426 16.1376 39.0779 15.5118 39.2809 14.8202C39.5177 14.1286 39.9068 13.4041 40.4482 12.6466C40.9895 11.8891 41.8692 11.181 43.0872 10.5223C44.2714 9.86367 45.4217 9.46847 46.5382 9.33673C47.6548 9.205 48.7205 9.2544 49.7355 9.48493C50.7505 9.71547 51.6979 10.0777 52.5776 10.5717C53.4911 11.0658 54.32 11.6092 55.0643 12.202C55.5718 12.5972 55.9778 13.1735 56.2823 13.931C56.5868 14.6555 56.8237 15.4789 56.9929 16.401C57.162 17.3232 57.2804 18.2947 57.3481 19.3157C57.4496 20.3037 57.5173 21.2752 57.5511 22.2303C57.5849 23.1525 57.6019 24.0087 57.6019 24.7991C57.6357 25.5566 57.7034 26.1824 57.8049 26.6764C57.9402 27.4009 58.177 28.0267 58.5154 28.5536C58.8537 29.0476 59.2259 29.4757 59.6319 29.838C60.0379 30.1674 60.4439 30.4308 60.8499 30.6284C61.2559 30.826 61.6111 30.9742 61.9157 31.073C62.1187 31.1718 62.3047 31.2377 62.4739 31.2706C62.8122 31.4024 63.0491 31.4024 63.1844 31.2706C62.9814 31.7317 62.7953 32.1269 62.6262 32.4563C62.457 32.7856 62.3217 33.0655 62.2202 33.2961C62.0848 33.5595 61.9664 33.7736 61.8649 33.9383C61.7634 34.1359 61.645 34.317 61.5096 34.4817C61.4081 34.6464 61.2728 34.8275 61.1036 35.0251C60.9345 35.2227 60.7653 35.4368 60.5961 35.6673C60.1563 35.5026 59.7334 35.305 59.3274 35.0745C58.9552 34.844 58.6169 34.6299 58.3124 34.4323C57.9402 34.2017 57.6019 33.9712 57.2974 33.7407C56.9928 33.5101 56.7053 33.2467 56.4346 32.9503C56.1978 32.6868 55.944 32.4069 55.6733 32.1105C55.4365 31.814 55.2335 31.4847 55.0643 31.1224C54.8613 31.5506 54.3707 32.1599 53.5926 32.9503C52.8482 33.7407 51.867 34.4652 50.649 35.1239C49.431 35.7496 48.01 36.1942 46.386 36.4577C44.7958 36.7212 43.0365 36.54 41.1079 35.9143C40.2621 35.6508 39.467 35.2721 38.7227 34.7781C37.9783 34.2511 37.3355 33.6254 36.7941 32.9009C36.2866 32.1763 35.9145 31.353 35.6776 30.4308C35.4746 29.4757 35.4915 28.4219 35.7284 27.2692C35.9652 26.1165 36.3881 25.145 36.9971 24.3545C37.6061 23.5641 38.3336 22.9219 39.1794 22.4279C40.0253 21.9339 40.9726 21.5552 42.0214 21.2917C43.0703 21.0282 44.153 20.8471 45.2695 20.7483C46.1492 20.7154 47.0288 20.7648 47.9085 20.8965C48.6528 21.0282 49.431 21.2752 50.243 21.6375C51.055 21.9668 51.7486 22.4773 52.3238 23.1689C52.29 21.4234 52.2223 20.0402 52.1208 19.0193C52.0531 17.9654 51.9855 17.1585 51.9178 16.5986C51.7825 15.94 51.664 15.4789 51.5625 15.2154C51.3934 14.9849 51.2073 14.7214 51.0043 14.425C50.8351 14.1286 50.6152 13.8651 50.3445 13.6346C50.0739 13.3711 49.7355 13.1571 49.3295 12.9924C48.9235 12.8277 48.4498 12.7618 47.9085 12.7948C47.3333 12.8277 46.8766 12.9759 46.5382 13.2394C46.1999 13.5029 45.9292 13.8157 45.7262 14.178C45.5571 14.5073 45.4556 14.8696 45.4217 15.2648C45.3879 15.66 45.4048 16.0058 45.4725 16.3022C45.5401 16.4998 45.6416 16.7139 45.777 16.9444C45.9123 17.142 46.0984 17.3561 46.3352 17.5866C46.5721 17.8172 46.8935 18.0148 47.2995 18.1795C46.5213 18.2783 45.8277 18.3606 45.2187 18.4265C44.6097 18.4594 44.0853 18.5088 43.6455 18.5747C43.138 18.6405 42.6981 18.6899 42.3259 18.7229C41.9538 18.7558 41.5139 18.8217 41.0064 18.9205C40.5666 18.9863 40.0253 19.0687 39.3824 19.1675C38.7396 19.2663 37.9952 19.398 37.1494 19.5627C37.3524 19.3321 37.5385 19.1181 37.7076 18.9205C37.8768 18.6899 38.0291 18.4923 38.1644 18.3277C38.2997 18.1301 38.4351 17.9489 38.5704 17.7843ZM46.183 23.6629C45.574 23.6959 44.965 23.8441 44.356 24.1075C43.747 24.3381 43.2056 24.6839 42.732 25.145C42.2583 25.5731 41.8523 26.0836 41.5139 26.6764C41.2094 27.2362 41.0572 27.862 41.0572 28.5536C41.0572 29.2452 41.2264 29.8545 41.5647 30.3814C41.9369 30.8754 42.4105 31.2871 42.9857 31.6164C43.5947 31.9458 44.2375 32.1434 44.9142 32.2093C45.6247 32.2751 46.3183 32.2093 46.995 32.0117C47.6378 31.7811 48.2468 31.4188 48.822 30.9248C49.3972 30.3979 49.8878 29.838 50.2938 29.2452C50.6998 28.6195 50.9874 28.0102 51.1565 27.4174C51.3257 26.7916 51.3426 26.2812 51.2073 25.886C50.9366 25.0297 50.3276 24.4369 49.3803 24.1075C48.4329 23.7453 47.3672 23.5971 46.183 23.6629Z" fill="#FC814A"/>
<path d="M85.0579 9.58374C84.7534 10.3083 84.4827 10.967 84.2459 11.5598C84.0429 12.1526 83.8568 12.6795 83.6876 13.1406C83.5185 13.6675 83.3662 14.1286 83.2309 14.5238C83.0955 14.9849 82.9433 15.5118 82.7741 16.1046C82.605 16.6316 82.385 17.2902 82.1144 18.0807C81.8775 18.8381 81.5899 19.7438 81.2516 20.7977C80.9809 19.2169 80.4903 17.9654 79.7798 17.0432C79.0693 16.0882 78.3419 15.3472 77.5976 14.8202C76.7179 14.2274 75.7705 13.7993 74.7555 13.5358C72.9285 13.2394 71.609 13.2723 70.797 13.6346C69.985 13.9969 69.4436 14.4579 69.173 15.0178C69.0376 15.2483 68.8854 15.5448 68.7162 15.907C68.5809 16.2364 68.4625 16.5822 68.361 16.9444C68.2933 17.3067 68.2764 17.669 68.3102 18.0313C68.3441 18.3935 68.4963 18.6899 68.767 18.9205C68.9361 19.0851 69.376 19.3157 70.0865 19.6121C70.797 19.8755 71.6428 20.1884 72.624 20.5507C73.639 20.88 74.7048 21.2423 75.8213 21.6375C76.9716 22.0327 78.0543 22.4279 79.0693 22.8231C80.0843 23.2183 80.964 23.6135 81.7084 24.0087C82.4527 24.4039 82.9433 24.7662 83.1801 25.0956C83.3831 25.4249 83.603 25.8695 83.8399 26.4294C84.1106 26.9563 84.2966 27.5491 84.3981 28.2078C84.5335 28.8335 84.5673 29.4922 84.4996 30.1838C84.4658 30.8425 84.2797 31.5012 83.9414 32.1599C83.603 32.8185 83.0617 33.4278 82.3174 33.9877C81.6069 34.5476 80.6426 35.0086 79.4246 35.3709C78.0036 35.799 76.6333 35.9143 75.3138 35.7167C73.9943 35.5191 72.7763 35.2227 71.6598 34.8275C70.5771 34.4323 69.6297 34.0535 68.8177 33.6913C68.0057 33.2961 67.4305 33.1314 67.0922 33.1973C66.72 33.2631 66.2971 33.4443 65.8234 33.7407C65.3498 34.0371 64.893 34.35 64.4532 34.6793C64.0472 34.9757 63.6919 35.2556 63.3874 35.5191C63.0829 35.7496 62.9307 35.832 62.9307 35.7661C62.9307 35.7002 62.9814 35.5026 63.0829 35.1733C63.2182 34.844 63.3536 34.4488 63.4889 33.9877C63.6581 33.4937 63.8103 32.9667 63.9457 32.4069C64.1148 31.814 64.2333 31.2542 64.3009 30.7272C64.3686 30.2991 64.4532 29.7722 64.5547 29.1464C64.6223 28.5865 64.7069 27.9114 64.8084 27.121C64.9438 26.2976 65.096 25.3096 65.2652 24.1569C65.4344 25.0132 65.6712 25.7542 65.9757 26.38C66.314 27.0057 66.6355 27.5491 66.94 28.0102C67.3121 28.5371 67.6674 28.9817 68.0057 29.344C68.5132 29.8051 69.1053 30.2332 69.782 30.6284C70.4925 31.0236 71.203 31.3694 71.9135 31.6658C72.624 31.9293 73.3007 32.094 73.9435 32.1599C74.5864 32.2257 75.1277 32.1599 75.5675 31.9622C76.0074 31.7646 76.3795 31.4024 76.6841 30.8754C77.0224 30.3485 77.2592 29.7722 77.3946 29.1464C77.5299 28.5207 77.5806 27.9279 77.5468 27.368C77.513 26.7752 77.3607 26.2976 77.0901 25.9354C76.8871 25.7048 76.4134 25.4084 75.669 25.0462C74.9585 24.6839 74.0958 24.2887 73.0808 23.8605C72.0996 23.4324 71.0507 22.9878 69.9342 22.5267C68.8516 22.0656 67.8196 21.6046 66.8384 21.1435C65.8911 20.6495 65.096 20.1884 64.4532 19.7603C63.8442 19.2992 63.5058 18.8875 63.4382 18.5253C63.3705 17.9983 63.3197 17.422 63.2859 16.7962C63.2521 16.1376 63.2859 15.4954 63.3874 14.8696C63.5227 14.2109 63.7596 13.5852 64.0979 12.9924C64.4701 12.3996 65.0114 11.9056 65.7219 11.5104C66.1956 11.2469 66.8215 11.0493 67.5997 10.9176C68.3779 10.7858 69.2406 10.72 70.188 10.72C71.1353 10.687 72.1165 10.72 73.1315 10.8188C74.1465 10.8846 75.1108 10.9834 76.0243 11.1152C76.9716 11.214 77.8175 11.3457 78.5618 11.5104C79.34 11.675 79.9321 11.8232 80.3381 11.955C80.8118 12.1196 81.3193 12.1361 81.8606 12.0044C82.3343 11.9056 82.8418 11.6915 83.3831 11.3622C83.9245 11.0328 84.4827 10.44 85.0579 9.58374Z" fill="#FC814A"/>
<path d="M86.6312 0.345805C87.4093 0.47754 88.1198 0.576341 88.7627 0.642209C89.4055 0.675143 89.9469 0.708077 90.3867 0.74101C90.8942 0.773944 91.334 0.790411 91.7062 0.790411C92.2137 0.757477 92.8058 0.708077 93.4825 0.642209C94.0577 0.576341 94.7512 0.494007 95.5633 0.395206C96.4091 0.296404 97.3734 0.164669 98.456 0C97.9485 0.26347 97.5256 0.526941 97.1873 0.790411C96.8489 1.02095 96.5783 1.26795 96.3753 1.53142C96.1384 1.82783 95.9523 2.10776 95.817 2.37123C95.6478 2.79937 95.4618 3.68859 95.2588 5.03887C95.0557 6.19155 94.802 7.90411 94.4975 10.1765C94.2268 12.449 93.8716 15.5283 93.4317 19.4145C94.6497 18.2289 95.8001 17.3396 96.8828 16.7468C97.9993 16.1211 98.9805 15.6765 99.8263 15.413C100.807 15.1166 101.721 14.9684 102.567 14.9684C103.616 15.0672 104.681 15.3966 105.764 15.9564C106.881 16.4834 107.913 17.1091 108.86 17.8337C109.841 18.5582 110.687 19.3321 111.397 20.1555C112.142 20.9788 112.666 21.7034 112.971 22.3291C113.174 22.7573 113.275 23.3171 113.275 24.0087C113.275 24.6674 113.208 25.392 113.072 26.1824C112.937 26.9728 112.751 27.7797 112.514 28.603C112.277 29.4263 112.04 30.2003 111.803 30.9248C111.6 31.6494 111.414 32.2916 111.245 32.8515C111.076 33.3784 110.975 33.7571 110.941 33.9877C110.873 34.4817 110.907 34.9592 111.042 35.4203C111.144 35.8155 111.347 36.2436 111.651 36.7047C111.956 37.1329 112.412 37.4951 113.021 37.7915C112.548 37.7257 112.04 37.6763 111.499 37.6433C110.991 37.5775 110.501 37.5281 110.027 37.4951C109.486 37.4622 108.944 37.4457 108.403 37.4457H106.576C106.001 37.4457 105.341 37.4622 104.597 37.4951C103.853 37.4951 103.04 37.5116 102.161 37.5445C102.634 37.3799 103.04 37.1658 103.379 36.9023C103.717 36.6059 104.005 36.326 104.242 36.0625C104.512 35.7661 104.749 35.4532 104.952 35.1239C105.087 34.8604 105.257 34.3664 105.46 33.6419C105.663 32.8844 105.849 32.0281 106.018 31.073C106.187 30.085 106.305 29.0476 106.373 27.9608C106.475 26.874 106.492 25.8366 106.424 24.8485C106.39 23.8276 106.238 22.9219 105.967 22.1315C105.73 21.3411 105.358 20.7648 104.851 20.4025C103.328 19.2827 101.941 18.7393 100.689 18.7723C99.4711 18.7723 98.3038 19.2498 97.1873 20.2049C96.7813 20.5672 96.3922 20.9294 96.02 21.2917C95.6817 21.621 95.3095 22.0162 94.9035 22.4773C94.4975 22.9055 94.1253 23.3501 93.787 23.8111C93.787 24.3051 93.8039 24.8486 93.8377 25.4414C93.8716 26.0342 93.9054 26.6105 93.9392 27.1704C93.9731 27.7961 94.0238 28.4219 94.0915 29.0476C94.1592 30.0027 94.2607 30.9413 94.396 31.8634C94.4975 32.6539 94.6328 33.5266 94.802 34.4817C94.9712 35.4038 95.1911 36.2436 95.4618 37.0011C95.0219 36.9353 94.5652 36.9188 94.0915 36.9517C93.6178 36.9517 93.1611 36.9517 92.7212 36.9517C92.2137 36.9847 91.7231 37.0011 91.2495 37.0011C90.8096 37.0341 90.3529 37.0835 89.8792 37.1493C89.4732 37.2152 89.0334 37.2811 88.5597 37.3469C88.086 37.3799 87.6293 37.4457 87.1894 37.5445C87.5954 36.7871 87.9338 36.046 88.2044 35.3215C88.4751 34.564 88.695 33.9053 88.8642 33.3455C89.0672 32.6868 89.2364 32.0446 89.3717 31.4188C89.4732 30.9248 89.5409 29.9862 89.5747 28.603C89.6424 27.1868 89.6931 25.5731 89.7269 23.7617C89.7608 21.9174 89.7777 19.9743 89.7777 17.9325C89.7777 15.8906 89.7608 13.9475 89.7269 12.1032C89.6931 10.2589 89.6254 8.64512 89.5239 7.2619C89.4563 5.87868 89.3717 4.9236 89.2702 4.39666C89.1349 3.86972 88.9488 3.34278 88.7119 2.81584C88.5089 2.35477 88.2383 1.91016 87.8999 1.48202C87.5616 1.02095 87.1387 0.642209 86.6312 0.345805Z" fill="#FC814A"/>
<path d="M113.224 12.5478C113.901 12.6466 114.51 12.7289 115.051 12.7948C115.559 12.8277 116.016 12.8606 116.422 12.8936C116.862 12.9265 117.284 12.943 117.69 12.943C118.063 12.943 118.536 12.9265 119.112 12.8936C119.585 12.8606 120.194 12.8277 120.939 12.7948C121.717 12.7289 122.63 12.6466 123.679 12.5478C123.611 12.6795 123.476 13.0912 123.273 13.7828C123.07 14.4415 122.867 15.2648 122.664 16.2528C122.461 17.2079 122.275 18.2783 122.106 19.4639C121.97 20.6166 121.903 21.7692 121.903 22.9219C121.937 24.0417 122.089 25.112 122.36 26.133C122.63 27.121 123.07 27.9279 123.679 28.5536C124.965 29.838 126.098 30.612 127.079 30.8754C128.094 31.1389 128.974 31.106 129.718 30.7766C130.463 30.4473 131.072 29.9533 131.545 29.2946C132.019 28.6359 132.357 28.0267 132.56 27.4668C133.068 25.9518 133.372 24.3545 133.474 22.6749C133.542 21.2258 133.423 19.6121 133.119 17.8337C132.814 16.0552 132.087 14.2439 130.936 12.3996C131.816 12.4654 132.577 12.5148 133.22 12.5478C133.863 12.5807 134.421 12.6136 134.895 12.6466C135.436 12.6795 135.91 12.7124 136.316 12.7454C136.688 12.7783 137.128 12.7783 137.635 12.7454C138.075 12.7454 138.6 12.7289 139.209 12.696C139.852 12.6301 140.562 12.5642 141.34 12.4984C141.476 15.7259 141.594 18.6076 141.695 21.1435C141.797 23.6465 141.865 25.8695 141.899 27.8126C141.966 29.7228 142 31.3859 142 32.8021C142 34.1853 142 35.3544 142 36.3095C141.966 38.5819 141.865 40.0804 141.695 40.805C141.425 41.8259 140.934 42.8469 140.224 43.8678C139.547 44.8888 138.684 45.7944 137.635 46.5849C136.587 47.4082 135.369 48.0339 133.981 48.4621C132.628 48.9232 131.139 49.0878 129.515 48.9561C127.925 48.8244 126.656 48.6103 125.709 48.3139C124.796 48.0504 124.068 47.7375 123.527 47.3753C123.019 47.013 122.647 46.6343 122.41 46.239C122.207 45.8438 122.055 45.4322 121.954 45.004C121.852 44.6088 121.751 44.2301 121.649 43.8678C121.548 43.5055 121.345 43.1927 121.04 42.9292C120.668 42.6328 120.279 42.3364 119.873 42.04C119.501 41.7765 119.095 41.5131 118.655 41.2496C118.249 40.9861 117.843 40.772 117.437 40.6074L128.247 40.0146C127.942 40.4098 127.722 40.772 127.587 41.1014C127.452 41.4307 127.367 41.7107 127.333 41.9412C127.299 42.2376 127.316 42.4846 127.384 42.6822C127.519 43.0774 127.756 43.5055 128.094 43.9666C128.467 44.4606 128.94 44.8394 129.515 45.1028C130.091 45.3992 130.767 45.498 131.545 45.3992C132.357 45.3004 133.271 44.8888 134.286 44.1642C135.132 43.5385 135.842 42.534 136.417 41.1508C136.891 39.9652 137.263 38.302 137.534 36.1613C137.805 34.0206 137.754 31.2048 137.382 27.7138C136.773 29.7557 135.944 31.32 134.895 32.4069C133.846 33.4937 132.797 34.2841 131.748 34.7781C130.53 35.3709 129.262 35.6838 127.942 35.7167C126.183 35.6508 124.677 35.4368 123.425 35.0745C122.173 34.6793 121.142 34.1523 120.33 33.4937C119.518 32.835 118.875 32.0611 118.401 31.1718C117.961 30.2497 117.64 29.2287 117.437 28.109C117.234 26.9892 117.132 25.8695 117.132 24.7497C117.132 23.5971 117.132 22.5267 117.132 21.5387C117.166 20.5507 117.183 19.6615 117.183 18.8711C117.183 18.0477 117.098 17.389 116.929 16.895C116.726 16.401 116.456 15.907 116.117 15.413C115.847 14.9849 115.474 14.5238 115.001 14.0298C114.493 13.5029 113.901 13.0088 113.224 12.5478Z" fill="#FC814A"/>
</svg>
