<svg width="168" height="60" viewBox="0 0 168 60" fill="none" xmlns="http://www.w3.org/2000/svg">
<path d="M0.599823 3.13917C1.99937 3.3404 3.21897 3.50139 4.25864 3.62212C5.2983 3.74286 6.15799 3.84348 6.83777 3.92397C7.63751 4.00446 8.31729 4.06483 8.87711 4.10507C9.5169 4.18557 10.2967 4.14532 11.2164 3.98434C12.1761 3.82335 13.1957 3.66237 14.2754 3.50139C15.355 3.30016 16.4747 3.13917 17.6343 3.01844C18.7939 2.8977 19.9135 2.8977 20.9932 3.01844C21.713 3.09893 22.6327 3.25991 23.7523 3.50139C24.8719 3.74286 26.0516 4.1252 27.2912 4.64839C28.5708 5.17159 29.8504 5.85577 31.1299 6.70093C32.4095 7.54609 33.5691 8.6126 34.6088 9.90047C35.6484 11.1883 36.5082 12.7177 37.188 14.4885C37.8677 16.2593 38.2476 18.332 38.3276 20.7065C38.4475 24.2481 38.1276 27.4678 37.3679 30.3655C36.6081 33.2632 35.4285 35.7383 33.829 37.7908C32.2695 39.8434 30.2902 41.4532 27.891 42.6203C25.4918 43.7874 22.6926 44.4314 19.4937 44.5521C17.0545 44.7533 14.6553 44.9345 12.296 45.0954C11.2963 45.1759 10.2367 45.2363 9.11707 45.2765C8.03742 45.3168 6.95773 45.357 5.87808 45.3973C4.79843 45.3973 3.75877 45.3772 2.75909 45.3369C1.75942 45.2967 0.839728 45.2363 0 45.1558C0.919702 44.7131 1.65945 44.2704 2.21927 43.8277C2.81907 43.385 3.27892 43.0027 3.59882 42.6807C3.9587 42.2782 4.21865 41.916 4.3786 41.5941C4.45858 41.1513 4.57852 40.2861 4.73846 38.9982C4.85843 37.9116 5.01839 36.3621 5.21832 34.3498C5.41826 32.3375 5.65817 29.6008 5.93808 26.1397L6.29794 21.8535C6.49788 19.1973 6.57789 17.024 6.5379 15.3337C6.5379 13.6433 6.49788 12.3152 6.41791 11.3493C6.29795 10.2224 6.13802 9.3974 5.93808 8.8742C5.77813 8.4315 5.47822 7.9083 5.03836 7.30462C4.63849 6.82167 4.07868 6.2381 3.35892 5.55392C2.67914 4.8295 1.75945 4.02458 0.599823 3.13917ZM13.2557 25.3549C13.3357 28.9367 13.5157 31.6936 13.7956 33.6254C14.1155 35.5169 14.4553 36.9255 14.8152 37.8512C15.255 38.8976 15.7349 39.5214 16.2547 39.7226C17.0145 39.7226 17.8742 39.4007 18.8339 38.7567C19.7936 38.0725 20.7333 37.0463 21.653 35.6779C22.6127 34.3096 23.4724 32.5991 24.2321 30.5466C25.0319 28.494 25.6117 26.0994 25.9716 23.3627C26.3315 20.626 26.2315 18.2112 25.6717 16.1185C25.1119 14.0257 24.3721 12.275 23.4524 10.8664C22.5327 9.41752 21.593 8.33088 20.6333 7.60646C19.6736 6.84179 18.9539 6.45945 18.474 6.45945C17.9142 6.45945 17.4143 6.62044 16.9745 6.9424C16.5346 7.22412 15.9149 7.88818 15.1151 8.93457C14.7152 9.49801 14.3554 10.3029 14.0355 11.3493C13.7556 12.275 13.5156 13.5025 13.3157 15.0318C13.1158 16.5612 13.0558 18.5332 13.1357 20.9479L13.2557 25.3549Z" fill="#555"/>
<path d="M45.5852 21.7327C45.7852 21.4913 45.9051 21.0486 45.9451 20.4046C46.0251 19.7205 46.185 18.9558 46.425 18.1106C46.7049 17.2655 47.1647 16.38 47.8045 15.4544C48.4443 14.5287 49.484 13.6635 50.9235 12.8585C52.323 12.0536 53.6826 11.5707 55.0022 11.4097C56.3218 11.2487 57.5814 11.3091 58.781 11.5908C59.9806 11.8725 61.1002 12.3152 62.1399 12.9189C63.2195 13.5226 64.1992 14.1867 65.0789 14.9111C65.6787 15.394 66.1585 16.0983 66.5184 17.024C66.8783 17.9094 67.1582 18.9155 67.3582 20.0424C67.5581 21.1693 67.698 22.3566 67.778 23.6042C67.898 24.8115 67.978 25.9988 68.018 27.1659C68.058 28.2928 68.0779 29.3392 68.0779 30.3051C68.1179 31.2308 68.1979 31.9954 68.3178 32.5991C68.4778 33.4845 68.7577 34.2492 69.1576 34.8931C69.5574 35.4968 69.9973 36.02 70.4772 36.4627C70.957 36.8652 71.4369 37.1871 71.9167 37.4286C72.3966 37.6701 72.8164 37.8512 73.1763 37.9719C73.4162 38.0927 73.6362 38.1732 73.8361 38.2134C74.236 38.3744 74.5159 38.3744 74.6758 38.2134C74.4359 38.7768 74.216 39.2598 74.016 39.6623C73.8161 40.0647 73.6561 40.4068 73.5362 40.6885C73.3762 41.0105 73.2363 41.2721 73.1163 41.4733C72.9963 41.7148 72.8564 41.9361 72.6964 42.1374C72.5765 42.3386 72.4165 42.56 72.2166 42.8014C72.0166 43.0429 71.8167 43.3045 71.6168 43.5862C71.097 43.385 70.5972 43.1435 70.1173 42.8618C69.6775 42.5801 69.2775 42.3185 68.9177 42.077C68.4778 41.7953 68.078 41.5136 67.7181 41.2318C67.3582 40.9501 67.0183 40.6282 66.6984 40.2659C66.4185 39.944 66.1186 39.6019 65.7987 39.2397C65.5188 38.8775 65.2788 38.475 65.0789 38.0323C64.839 38.5555 64.2592 39.3 63.3395 40.2659C62.4598 41.2318 61.3001 42.1173 59.8606 42.9222C58.4211 43.6868 56.7416 44.2301 54.8222 44.5521C52.9428 44.8741 50.8635 44.6527 48.5843 43.8881C47.5846 43.5661 46.6449 43.1033 45.7652 42.4996C44.8855 41.8557 44.1257 41.091 43.4859 40.2056C42.8861 39.3202 42.4462 38.314 42.1663 37.1871C41.9264 36.02 41.9464 34.7321 42.2263 33.3235C42.5062 31.9149 43.0061 30.7277 43.7258 29.7618C44.4456 28.7959 45.3053 28.0111 46.305 27.4074C47.3047 26.8037 48.4243 26.3409 49.6639 26.0189C50.9035 25.697 52.1831 25.4756 53.5027 25.3549C54.5423 25.3146 55.582 25.375 56.6216 25.536C57.5014 25.697 58.421 25.9988 59.3807 26.4415C60.3404 26.844 61.1602 27.4678 61.84 28.3129C61.8 26.1799 61.72 24.4896 61.6 23.242C61.5201 21.9541 61.4401 20.9681 61.3601 20.2839C61.2002 19.479 61.0602 18.9155 60.9402 18.5936C60.7403 18.3118 60.5204 17.9899 60.2805 17.6277C60.0805 17.2655 59.8206 16.9435 59.5007 16.6618C59.1808 16.3398 58.781 16.0782 58.3011 15.877C57.8213 15.6757 57.2614 15.5953 56.6216 15.6355C55.9419 15.6757 55.4021 15.8569 55.0022 16.1788C54.6023 16.5008 54.2824 16.8831 54.0425 17.3258C53.8425 17.7283 53.7226 18.171 53.6826 18.6539C53.6426 19.1369 53.6626 19.5595 53.7426 19.9217C53.8226 20.1632 53.9425 20.4248 54.1025 20.7065C54.2624 20.9479 54.4823 21.2095 54.7622 21.4913C55.0421 21.773 55.422 22.0145 55.9019 22.2157C54.9822 22.3364 54.1625 22.437 53.4427 22.5175C52.7229 22.5578 52.1031 22.6181 51.5833 22.6986C50.9835 22.7791 50.4636 22.8395 50.0238 22.8797C49.5839 22.92 49.0641 23.0005 48.4643 23.1212C47.9445 23.2017 47.3047 23.3023 46.5449 23.4231C45.7852 23.5438 44.9054 23.7048 43.9058 23.906C44.1457 23.6243 44.3656 23.3627 44.5656 23.1212C44.7655 22.8395 44.9454 22.598 45.1054 22.3968C45.2653 22.1553 45.4253 21.934 45.5852 21.7327ZM54.5823 28.9166C53.8626 28.9569 53.1428 29.138 52.423 29.4599C51.7032 29.7417 51.0635 30.1642 50.5036 30.7277C49.9438 31.2509 49.464 31.8747 49.0641 32.5991C48.7042 33.2833 48.5243 34.048 48.5243 34.8931C48.5243 35.7383 48.7242 36.4828 49.1241 37.1268C49.5639 37.7305 50.1238 38.2335 50.8036 38.636C51.5233 39.0384 52.2831 39.2799 53.0828 39.3604C53.9225 39.4409 54.7423 39.3604 55.542 39.1189C56.3018 38.8372 57.0215 38.3945 57.7013 37.7908C58.3811 37.1469 58.9609 36.4627 59.4407 35.7383C59.9206 34.9736 60.2605 34.2291 60.4604 33.5046C60.6604 32.74 60.6803 32.1162 60.5204 31.6332C60.2005 30.5868 59.4808 29.8624 58.3611 29.4599C57.2415 29.0172 55.9819 28.8361 54.5823 28.9166Z" fill="#FC5130"/>
<path d="M100.527 11.7115C100.168 12.5969 99.8477 13.4019 99.5677 14.1263C99.3278 14.8507 99.1079 15.4946 98.9079 16.0581C98.708 16.702 98.5281 17.2655 98.3681 17.7484C98.2082 18.3118 98.0282 18.9558 97.8283 19.6802C97.6283 20.3241 97.3684 21.1291 97.0486 22.095C96.7686 23.0206 96.4287 24.1274 96.0289 25.4152C95.709 23.4834 95.1292 21.9541 94.2895 20.8272C93.4497 19.6601 92.59 18.7546 91.7103 18.1106C90.6706 17.3862 89.551 16.863 88.3514 16.541C86.1921 16.1788 84.6326 16.2191 83.6729 16.6618C82.7132 17.1045 82.0734 17.6679 81.7535 18.3521C81.5936 18.6338 81.4136 18.996 81.2137 19.4387C81.0538 19.8412 80.9138 20.2638 80.7938 20.7065C80.7138 21.1492 80.6938 21.5919 80.7338 22.0346C80.7738 22.4773 80.9538 22.8395 81.2737 23.1212C81.4736 23.3225 81.9934 23.6042 82.8332 23.9664C83.6729 24.2884 84.6726 24.6707 85.8322 25.1134C87.0318 25.5158 88.2914 25.9586 89.611 26.4415C90.9705 26.9245 92.2501 27.4074 93.4497 27.8904C94.6493 28.3733 95.689 28.8563 96.5687 29.3392C97.4484 29.8222 98.0282 30.2649 98.3081 30.6673C98.5481 31.0698 98.808 31.6131 99.0879 32.2973C99.4078 32.9412 99.6277 33.6656 99.7477 34.4705C99.9076 35.2352 99.9476 36.0401 99.8676 36.8853C99.8277 37.6902 99.6077 38.4951 99.2078 39.3C98.808 40.105 98.1682 40.8495 97.2885 41.5337C96.4488 42.2179 95.3091 42.7813 93.8696 43.224C92.1901 43.7472 90.5707 43.8881 89.0112 43.6466C87.4517 43.4051 86.0121 43.0429 84.6925 42.56C83.4129 42.077 82.2933 41.6142 81.3336 41.1715C80.374 40.6885 79.6942 40.4873 79.2943 40.5678C78.8545 40.6483 78.3546 40.8696 77.7948 41.2318C77.235 41.5941 76.6952 41.9764 76.1753 42.3788C75.6955 42.7411 75.2756 43.0831 74.9157 43.4051C74.5558 43.6868 74.3759 43.7874 74.3759 43.707C74.3759 43.6265 74.4359 43.385 74.5558 42.9825C74.7158 42.5801 74.8757 42.0971 75.0357 41.5337C75.2356 40.93 75.4156 40.2861 75.5755 39.6019C75.7754 38.8775 75.9154 38.1933 75.9954 37.5493C76.0753 37.0262 76.1753 36.3822 76.2953 35.6175C76.3752 34.9334 76.4752 34.1083 76.5952 33.1424C76.7551 32.1363 76.935 30.9289 77.135 29.5203C77.3349 30.5667 77.6148 31.4722 77.9747 32.2369C78.3746 33.0016 78.7545 33.6656 79.1143 34.2291C79.5542 34.873 79.9741 35.4163 80.374 35.859C80.9738 36.4225 81.6735 36.9457 82.4733 37.4286C83.313 37.9116 84.1527 38.3341 84.9925 38.6964C85.8322 39.0183 86.6319 39.2195 87.3917 39.3C88.1514 39.3805 88.7913 39.3 89.3111 39.0586C89.8309 38.8171 90.2708 38.3744 90.6306 37.7305C91.0305 37.0865 91.3104 36.3822 91.4704 35.6175C91.6303 34.8529 91.6903 34.1285 91.6503 33.4443C91.6103 32.7199 91.4304 32.1363 91.1105 31.6936C90.8706 31.4119 90.3107 31.0496 89.431 30.6069C88.5913 30.1642 87.5716 29.6813 86.372 29.1581C85.2124 28.6349 83.9728 28.0916 82.6532 27.5281C81.3736 26.9647 80.154 26.4013 78.9944 25.8378C77.8748 25.2341 76.9351 24.6707 76.1753 24.1475C75.4556 23.584 75.0557 23.081 74.9757 22.6383C74.8957 21.9943 74.8358 21.29 74.7958 20.5254C74.7558 19.7205 74.7957 18.9357 74.9157 18.171C75.0757 17.3661 75.3556 16.6014 75.7554 15.877C76.1953 15.1526 76.8351 14.5489 77.6748 14.0659C78.2346 13.7439 78.9744 13.5025 79.8941 13.3415C80.8138 13.1805 81.8335 13.1 82.9531 13.1C84.0727 13.0598 85.2324 13.1 86.432 13.2208C87.6316 13.3012 88.7713 13.422 89.8509 13.583C90.9706 13.7037 91.9702 13.8647 92.8499 14.0659C93.7696 14.2671 94.4694 14.4482 94.9492 14.6092C95.5091 14.8105 96.1089 14.8306 96.7487 14.6696C97.3085 14.5489 97.9083 14.2873 98.5481 13.8848C99.1879 13.4823 99.8477 12.7579 100.527 11.7115Z" fill="#FC5130"/>
<path d="M102.387 0.422581C103.307 0.583564 104.146 0.704302 104.906 0.784793C105.666 0.825039 106.306 0.865285 106.825 0.905531C107.425 0.945777 107.945 0.9659 108.385 0.9659C108.985 0.925654 109.684 0.865285 110.484 0.784793C111.164 0.704302 111.984 0.603687 112.943 0.48295C113.943 0.362212 115.083 0.201229 116.362 0C115.762 0.321967 115.263 0.643933 114.863 0.9659C114.463 1.24762 114.143 1.54946 113.903 1.87143C113.623 2.23364 113.403 2.57573 113.243 2.8977C113.043 3.42089 112.823 4.50753 112.584 6.15761C112.344 7.56621 112.044 9.659 111.684 12.436C111.364 15.2129 110.944 18.9759 110.424 23.7249C111.864 22.2761 113.223 21.1894 114.503 20.465C115.822 19.7003 116.982 19.157 117.982 18.835C119.141 18.4728 120.221 18.2917 121.221 18.2917C122.46 18.4125 123.72 18.8149 125 19.4991C126.319 20.143 127.539 20.9077 128.658 21.7931C129.818 22.6785 130.818 23.6243 131.657 24.6304C132.537 25.6366 133.157 26.522 133.517 27.2867C133.757 27.8099 133.877 28.494 133.877 29.3392C133.877 30.1441 133.797 31.0295 133.637 31.9954C133.477 32.9613 133.257 33.9473 132.977 34.9535C132.697 35.9596 132.417 36.9054 132.137 37.7908C131.897 38.6762 131.677 39.461 131.477 40.1452C131.277 40.7891 131.157 41.252 131.117 41.5337C131.038 42.1374 131.078 42.7209 131.237 43.2844C131.357 43.7673 131.597 44.2905 131.957 44.854C132.317 45.3772 132.857 45.8199 133.577 46.1821C133.017 46.1016 132.417 46.0412 131.777 46.001C131.178 45.9205 130.598 45.8601 130.038 45.8199C129.398 45.7796 128.758 45.7595 128.118 45.7595H125.959C125.279 45.7595 124.5 45.7796 123.62 45.8199C122.74 45.8199 121.781 45.84 120.741 45.8802C121.301 45.679 121.781 45.4174 122.18 45.0954C122.58 44.7332 122.92 44.3911 123.2 44.0692C123.52 43.707 123.8 43.3246 124.04 42.9222C124.2 42.6002 124.4 41.9965 124.64 41.1111C124.88 40.1854 125.099 39.1391 125.299 37.9719C125.499 36.7646 125.639 35.4968 125.719 34.1687C125.839 32.8406 125.859 31.5728 125.779 30.3655C125.739 29.1178 125.559 28.0111 125.239 27.0452C124.96 26.0793 124.52 25.375 123.92 24.9323C122.12 23.5639 120.481 22.8999 119.001 22.9401C117.562 22.9401 116.182 23.5237 114.863 24.6908C114.383 25.1335 113.923 25.5762 113.483 26.0189C113.083 26.4214 112.644 26.9043 112.164 27.4678C111.684 27.991 111.244 28.5343 110.844 29.0977C110.844 29.7014 110.864 30.3655 110.904 31.0899C110.944 31.8143 110.984 32.5186 111.024 33.2028C111.064 33.9675 111.124 34.7321 111.204 35.4968C111.284 36.6639 111.404 37.8109 111.564 38.9378C111.684 39.9037 111.844 40.9702 112.044 42.1374C112.244 43.2643 112.504 44.2905 112.823 45.2162C112.304 45.1357 111.764 45.1156 111.204 45.1558C110.644 45.1558 110.104 45.1558 109.584 45.1558C108.985 45.1961 108.405 45.2162 107.845 45.2162C107.325 45.2564 106.785 45.3168 106.226 45.3973C105.746 45.4778 105.226 45.5583 104.666 45.6388C104.106 45.679 103.566 45.7595 103.047 45.8802C103.526 44.9546 103.926 44.049 104.246 43.1636C104.566 42.238 104.826 41.4331 105.026 40.7489C105.266 39.944 105.466 39.1592 105.626 38.3945C105.746 37.7908 105.826 36.6438 105.866 34.9535C105.946 33.2229 106.006 31.2509 106.046 29.0374C106.086 26.7836 106.106 24.4091 106.106 21.9138C106.106 19.4186 106.086 17.0441 106.046 14.7903C106.006 12.5366 105.926 10.5645 105.806 8.8742C105.726 7.18388 105.626 6.01675 105.506 5.37282C105.346 4.72888 105.126 4.08495 104.846 3.44102C104.606 2.87758 104.286 2.33426 103.886 1.81106C103.486 1.24762 102.987 0.784793 102.387 0.422581Z" fill="#FC5130"/>
<path d="M133.817 15.3337C134.616 15.4544 135.336 15.555 135.976 15.6355C136.576 15.6757 137.116 15.716 137.595 15.7562C138.115 15.7965 138.615 15.8166 139.095 15.8166C139.535 15.8166 140.095 15.7965 140.774 15.7562C141.334 15.716 142.054 15.6757 142.934 15.6355C143.853 15.555 144.933 15.4544 146.173 15.3337C146.093 15.4946 145.933 15.9977 145.693 16.8429C145.453 17.6478 145.213 18.6539 144.973 19.8613C144.733 21.0284 144.513 22.3364 144.313 23.7853C144.153 25.1939 144.073 26.6025 144.073 28.0111C144.113 29.3794 144.293 30.6874 144.613 31.9351C144.933 33.1424 145.453 34.1285 146.173 34.8931C147.692 36.4627 149.032 37.4085 150.191 37.7305C151.391 38.0524 152.431 38.0122 153.31 37.6097C154.19 37.2073 154.91 36.6036 155.47 35.7987C156.03 34.9937 156.429 34.2492 156.669 33.565C157.269 31.7137 157.629 29.7618 157.749 27.7092C157.829 25.9384 157.689 23.9664 157.329 21.7931C156.969 19.6198 156.11 17.4063 154.75 15.1526C155.79 15.233 156.689 15.2934 157.449 15.3337C158.209 15.3739 158.869 15.4141 159.428 15.4544C160.068 15.4946 160.628 15.5349 161.108 15.5751C161.548 15.6154 162.068 15.6154 162.667 15.5751C163.187 15.5751 163.807 15.555 164.527 15.5148C165.287 15.4343 166.126 15.3538 167.046 15.2733C167.206 19.2174 167.346 22.7389 167.466 25.8378C167.586 28.8965 167.666 31.6131 167.706 33.9876C167.786 36.3219 167.826 38.3543 167.826 40.0848C167.826 41.7752 167.826 43.2039 167.826 44.371C167.786 47.148 167.666 48.9792 167.466 49.8646C167.146 51.1122 166.566 52.3598 165.726 53.6074C164.927 54.855 163.907 55.9618 162.667 56.9277C161.428 57.9339 159.988 58.6985 158.349 59.2217C156.749 59.7852 154.99 59.9864 153.071 59.8254C151.191 59.6644 149.692 59.4028 148.572 59.0406C147.492 58.7186 146.632 58.3363 145.993 57.8936C145.393 57.4509 144.953 56.9881 144.673 56.5051C144.433 56.0222 144.253 55.5191 144.133 54.9959C144.013 54.513 143.893 54.0501 143.773 53.6074C143.653 53.1647 143.414 52.7824 143.054 52.4604C142.614 52.0982 142.154 51.736 141.674 51.3738C141.234 51.0518 140.754 50.7299 140.235 50.4079C139.755 50.0859 139.275 49.8243 138.795 49.6231L151.571 48.8987C151.211 49.3816 150.951 49.8243 150.791 50.2268C150.631 50.6292 150.531 50.9713 150.491 51.253C150.451 51.6153 150.471 51.9171 150.551 52.1586C150.711 52.6415 150.991 53.1647 151.391 53.7282C151.831 54.3319 152.391 54.7947 153.071 55.1166C153.75 55.4789 154.55 55.5996 155.47 55.4789C156.429 55.3581 157.509 54.8551 158.709 53.9696C159.708 53.205 160.548 51.9775 161.228 50.2871C161.788 48.8383 162.228 46.8059 162.547 44.1899C162.867 41.5739 162.807 38.1329 162.368 33.8669C161.648 36.3621 160.668 38.2738 159.428 39.6019C158.189 40.93 156.949 41.8959 155.71 42.4996C154.27 43.224 152.771 43.6063 151.211 43.6466C149.132 43.5661 147.352 43.3045 145.873 42.8618C144.393 42.3788 143.174 41.7349 142.214 40.93C141.254 40.1251 140.495 39.1793 139.935 38.0927C139.415 36.9658 139.035 35.7182 138.795 34.3498C138.555 32.9814 138.435 31.6131 138.435 30.2447C138.435 28.8361 138.435 27.5281 138.435 26.3208C138.475 25.1134 138.495 24.0268 138.495 23.0609C138.495 22.0547 138.395 21.2498 138.195 20.6461C137.955 20.0424 137.635 19.4387 137.236 18.835C136.916 18.3118 136.476 17.7484 135.916 17.1447C135.316 16.5008 134.616 15.8971 133.817 15.3337Z" fill="#FC5130"/>
</svg>
