<svg width="150" height="150" viewBox="0 0 150 150" fill="none" xmlns="http://www.w3.org/2000/svg">
<circle cx="75" cy="75" r="75" fill="#19647E"/>
<path d="M13.4396 56.2019C14.4653 56.343 15.3592 56.4559 16.1212 56.5406C16.8831 56.6253 17.5132 56.6959 18.0114 56.7523C18.5976 56.8088 19.0958 56.8511 19.5061 56.8794C19.975 56.9358 20.5465 56.9076 21.2205 56.7947C21.9239 56.6818 22.6712 56.5688 23.4625 56.4559C24.2538 56.3148 25.0743 56.2019 25.9242 56.1172C26.7741 56.0325 27.5947 56.0325 28.386 56.1172C28.9135 56.1736 29.5876 56.2865 30.4081 56.4559C31.2287 56.6253 32.0933 56.8935 33.0018 57.2604C33.9396 57.6274 34.8774 58.1073 35.8152 58.7001C36.753 59.2929 37.6029 60.041 38.3649 60.9443C39.1269 61.8477 39.757 62.9204 40.2552 64.1624C40.7534 65.4045 41.0318 66.8583 41.0904 68.5238C41.1783 71.008 40.9439 73.2663 40.3871 75.2988C39.8302 77.3312 38.9657 79.0673 37.7934 80.507C36.6505 81.9467 35.1998 83.0758 33.4414 83.8945C31.683 84.7131 29.6315 85.1648 27.287 85.2495C25.4993 85.3906 23.7409 85.5176 22.0118 85.6306C21.2791 85.687 20.5025 85.7294 19.6819 85.7576C18.8906 85.7858 18.0994 85.814 17.3081 85.8423C16.5168 85.8423 15.7548 85.8282 15.0222 85.7999C14.2895 85.7717 13.6154 85.7294 13 85.6729C13.6741 85.3624 14.2162 85.0519 14.6265 84.7413C15.0661 84.4308 15.4031 84.1627 15.6376 83.9368C15.9014 83.6545 16.0919 83.4005 16.2091 83.1746C16.2677 82.8641 16.3556 82.2572 16.4728 81.3539C16.5608 80.5917 16.678 79.5049 16.8245 78.0934C16.9711 76.682 17.1469 74.7624 17.352 72.3347L17.6158 69.3283C17.7623 67.4652 17.8209 65.9409 17.7916 64.7552C17.7916 63.5696 17.7623 62.6381 17.7037 61.9606C17.6158 61.1702 17.4986 60.5915 17.352 60.2245C17.2348 59.914 17.015 59.547 16.6926 59.1236C16.3996 58.7848 15.9893 58.3755 15.4618 57.8956C14.9635 57.3875 14.2895 56.8229 13.4396 56.2019ZM22.7152 71.7843C22.7738 74.2966 22.9056 76.2303 23.1108 77.5853C23.3452 78.9121 23.5944 79.9001 23.8581 80.5493C24.1805 81.2833 24.5322 81.7208 24.9132 81.862C25.47 81.862 26.1001 81.6362 26.8034 81.1845C27.5068 80.7046 28.1955 79.9848 28.8695 79.025C29.5729 78.0652 30.203 76.8655 30.7598 75.4258C31.346 73.9861 31.7709 72.3065 32.0347 70.3869C32.2984 68.4673 32.2252 66.7736 31.8149 65.3057C31.4046 63.8378 30.8624 62.6098 30.1883 61.6218C29.5143 60.6056 28.8256 59.8434 28.1222 59.3353C27.4189 58.7989 26.8914 58.5307 26.5397 58.5307C26.1294 58.5307 25.763 58.6437 25.4407 58.8695C25.1183 59.0671 24.664 59.5329 24.0779 60.2668C23.7848 60.662 23.5211 61.2266 23.2866 61.9606C23.0815 62.6098 22.9056 63.4708 22.7591 64.5435C22.6126 65.6162 22.5686 66.9994 22.6272 68.6932L22.7152 71.7843Z" fill="#FC814A"/>
<path d="M46.4096 69.2436C46.5561 69.0743 46.644 68.7638 46.6733 68.3121C46.7319 67.8322 46.8492 67.2958 47.025 66.703C47.2302 66.1102 47.5672 65.4892 48.0361 64.8399C48.505 64.1907 49.267 63.5837 50.322 63.0192C51.3477 62.4546 52.3442 62.1158 53.3113 62.0029C54.2784 61.89 55.2016 61.9323 56.0808 62.1299C56.96 62.3275 57.7806 62.6381 58.5425 63.0615C59.3338 63.4849 60.0518 63.9507 60.6966 64.4588C61.1362 64.7976 61.4878 65.2916 61.7516 65.9409C62.0154 66.5619 62.2205 67.2676 62.367 68.058C62.5136 68.8484 62.6162 69.6812 62.6748 70.5563C62.7627 71.4032 62.8213 72.2359 62.8506 73.0546C62.8799 73.845 62.8946 74.5789 62.8946 75.2564C62.9239 75.9057 62.9825 76.442 63.0704 76.8655C63.1876 77.4865 63.3928 78.0229 63.6858 78.4745C63.9789 78.8979 64.3013 79.2649 64.653 79.5754C65.0046 79.8577 65.3563 80.0836 65.708 80.2529C66.0597 80.4223 66.3674 80.5493 66.6312 80.634C66.807 80.7187 66.9682 80.7752 67.1147 80.8034C67.4078 80.9163 67.6129 80.9163 67.7302 80.8034C67.5543 81.1986 67.3931 81.5374 67.2466 81.8196C67.1001 82.1019 66.9828 82.3419 66.8949 82.5395C66.7777 82.7653 66.6751 82.9488 66.5872 83.09C66.4993 83.2593 66.3967 83.4146 66.2795 83.5557C66.1916 83.6969 66.0743 83.8521 65.9278 84.0215C65.7813 84.1909 65.6347 84.3744 65.4882 84.572C65.1072 84.4308 64.7409 84.2615 64.3892 84.0639C64.0668 83.8662 63.7738 83.6828 63.51 83.5134C63.1876 83.3158 62.8946 83.1182 62.6308 82.9206C62.367 82.723 62.1179 82.4971 61.8835 82.2431C61.6783 82.0173 61.4585 81.7773 61.2241 81.5232C61.0189 81.2692 60.8431 80.9869 60.6966 80.6764C60.5207 81.0434 60.0958 81.5656 59.4217 82.2431C58.777 82.9206 57.9271 83.5416 56.872 84.1062C55.817 84.6425 54.5861 85.0236 53.1794 85.2495C51.802 85.4753 50.2781 85.32 48.6076 84.7837C47.8749 84.5579 47.1862 84.2332 46.5415 83.8098C45.8967 83.3581 45.3399 82.8218 44.871 82.2007C44.4314 81.5797 44.109 80.874 43.9039 80.0836C43.728 79.2649 43.7427 78.3616 43.9478 77.3736C44.153 76.3856 44.5193 75.5528 45.0468 74.8753C45.5743 74.1978 46.2044 73.6474 46.9371 73.2239C47.6698 72.8005 48.4903 72.4759 49.3989 72.25C50.3074 72.0242 51.2452 71.8689 52.2123 71.7843C52.9743 71.756 53.7362 71.7984 54.4982 71.9113C55.143 72.0242 55.817 72.2359 56.5204 72.5464C57.2237 72.8287 57.8245 73.2663 58.3227 73.8591C58.2934 72.3629 58.2348 71.1773 58.1469 70.3022C58.0883 69.3989 58.0297 68.7073 57.971 68.2274C57.8538 67.6628 57.7512 67.2676 57.6633 67.0418C57.5168 66.8442 57.3556 66.6183 57.1798 66.3643C57.0332 66.1102 56.8427 65.8844 56.6083 65.6868C56.3738 65.461 56.0808 65.2775 55.7291 65.1363C55.3774 64.9952 54.9671 64.9387 54.4982 64.967C54 64.9952 53.6044 65.1222 53.3113 65.348C53.0182 65.5739 52.7838 65.8421 52.6079 66.1526C52.4614 66.4349 52.3735 66.7454 52.3442 67.0841C52.3149 67.4229 52.3295 67.7193 52.3881 67.9733C52.4467 68.1427 52.5347 68.3262 52.6519 68.5238C52.7691 68.6932 52.9303 68.8767 53.1355 69.0743C53.3406 69.2719 53.619 69.4412 53.9707 69.5824C53.2966 69.6671 52.6959 69.7376 52.1683 69.7941C51.6408 69.8223 51.1866 69.8647 50.8056 69.9211C50.366 69.9776 49.985 70.0199 49.6626 70.0482C49.3402 70.0764 48.9593 70.1329 48.5197 70.2175C48.1387 70.274 47.6698 70.3446 47.1129 70.4293C46.5561 70.5139 45.9114 70.6269 45.1787 70.768C45.3545 70.5704 45.5157 70.3869 45.6623 70.2175C45.8088 70.0199 45.9407 69.8506 46.0579 69.7094C46.1751 69.54 46.2923 69.3848 46.4096 69.2436ZM53.0036 74.2825C52.4761 74.3107 51.9485 74.4378 51.421 74.6636C50.8935 74.8612 50.4246 75.1576 50.0143 75.5528C49.604 75.9198 49.2523 76.3573 48.9593 76.8655C48.6955 77.3454 48.5636 77.8817 48.5636 78.4745C48.5636 79.0673 48.7101 79.5896 49.0032 80.0412C49.3256 80.4647 49.7359 80.8175 50.2341 81.0998C50.7616 81.3821 51.3184 81.5515 51.9046 81.6079C52.52 81.6644 53.1208 81.6079 53.7069 81.4386C54.2638 81.241 54.7913 80.9304 55.2895 80.507C55.7877 80.0553 56.2127 79.5754 56.5643 79.0673C56.916 78.531 57.1651 78.0087 57.3116 77.5006C57.4582 76.9643 57.4728 76.5267 57.3556 76.188C57.1212 75.454 56.5936 74.9459 55.773 74.6636C54.9525 74.3531 54.0293 74.2261 53.0036 74.2825Z" fill="#FC814A"/>
<path d="M86.6769 62.2146C86.4131 62.8357 86.1787 63.4002 85.9735 63.9084C85.7977 64.4165 85.6365 64.8682 85.49 65.2634C85.3435 65.715 85.2116 66.1102 85.0943 66.449C84.9771 66.8442 84.8452 67.2958 84.6987 67.804C84.5522 68.2556 84.3617 68.8202 84.1272 69.4977C83.9221 70.147 83.673 70.9233 83.3799 71.8266C83.1455 70.4716 82.7205 69.3989 82.1051 68.6085C81.4896 67.7899 80.8595 67.1547 80.2148 66.703C79.4528 66.1949 78.6322 65.8279 77.753 65.6021C76.1705 65.348 75.0275 65.3763 74.3242 65.6868C73.6208 65.9973 73.1519 66.3925 72.9174 66.8724C72.8002 67.07 72.6683 67.3241 72.5218 67.6346C72.4046 67.9169 72.302 68.2133 72.2141 68.5238C72.1555 68.8343 72.1408 69.1448 72.1701 69.4554C72.1994 69.7659 72.3313 70.0199 72.5658 70.2175C72.7123 70.3587 73.0933 70.5563 73.7087 70.8104C74.3242 71.0362 75.0568 71.3044 75.9067 71.6149C76.7859 71.8972 77.7091 72.2077 78.6762 72.5464C79.6726 72.8852 80.6104 73.2239 81.4896 73.5627C82.3688 73.9014 83.1308 74.2402 83.7755 74.5789C84.4203 74.9177 84.8452 75.2282 85.0504 75.5105C85.2262 75.7928 85.4167 76.1739 85.6219 76.6537C85.8563 77.1054 86.0175 77.6135 86.1054 78.1781C86.2227 78.7145 86.252 79.279 86.1933 79.8718C86.164 80.4364 86.0029 81.001 85.7098 81.5656C85.4167 82.1302 84.9478 82.6524 84.3031 83.1323C83.6876 83.6122 82.8524 84.0074 81.7973 84.3179C80.5665 84.6849 79.3796 84.7837 78.2366 84.6143C77.0936 84.4449 76.0386 84.1909 75.0715 83.8521C74.1337 83.5134 73.3131 83.1888 72.6097 82.8782C71.9064 82.5395 71.4081 82.3983 71.1151 82.4548C70.7927 82.5113 70.4264 82.6665 70.0161 82.9206C69.6058 83.1746 69.2101 83.4428 68.8292 83.7251C68.4775 83.9792 68.1698 84.2191 67.906 84.4449C67.6422 84.6425 67.5104 84.7131 67.5104 84.6567C67.5104 84.6002 67.5543 84.4308 67.6422 84.1485C67.7595 83.8662 67.8767 83.5275 67.9939 83.1323C68.1405 82.7089 68.2723 82.2572 68.3896 81.7773C68.5361 81.2692 68.6387 80.7893 68.6973 80.3376C68.7559 79.9707 68.8292 79.519 68.9171 78.9826C68.9757 78.5027 69.049 77.9241 69.1369 77.2466C69.2541 76.5408 69.386 75.694 69.5325 74.7059C69.6791 75.4399 69.8842 76.0751 70.148 76.6114C70.441 77.1478 70.7194 77.6135 70.9832 78.0087C71.3056 78.4604 71.6133 78.8415 71.9064 79.152C72.346 79.5472 72.8588 79.9142 73.445 80.2529C74.0604 80.5917 74.6758 80.8881 75.2913 81.1422C75.9067 81.368 76.4928 81.5091 77.0497 81.5656C77.6065 81.622 78.0754 81.5656 78.4564 81.3962C78.8374 81.2268 79.1597 80.9163 79.4235 80.4647C79.7166 80.013 79.9217 79.519 80.0389 78.9826C80.1562 78.4463 80.2001 77.9382 80.1708 77.4583C80.1415 76.9502 80.0096 76.5408 79.7752 76.2303C79.5993 76.0327 79.1891 75.7786 78.5443 75.4681C77.9289 75.1576 77.1815 74.8189 76.3023 74.4519C75.4525 74.0849 74.544 73.7038 73.5768 73.3086C72.639 72.9134 71.7452 72.5182 70.8953 72.123C70.0747 71.6996 69.386 71.3044 68.8292 70.9374C68.3016 70.5422 68.0086 70.1893 67.95 69.8788C67.8913 69.4271 67.8474 68.9331 67.8181 68.3968C67.7888 67.8322 67.8181 67.2817 67.906 66.7454C68.0232 66.1808 68.2284 65.6444 68.5214 65.1363C68.8438 64.6282 69.3127 64.2048 69.9282 63.866C70.3385 63.6402 70.8806 63.4708 71.5547 63.3579C72.2287 63.245 72.976 63.1885 73.7966 63.1885C74.6172 63.1603 75.4671 63.1885 76.3463 63.2732C77.2255 63.3297 78.0607 63.4144 78.852 63.5273C79.6726 63.612 80.4053 63.7249 81.05 63.866C81.7241 64.0072 82.2369 64.1342 82.5886 64.2471C82.9989 64.3883 83.4385 64.4024 83.9074 64.2895C84.3177 64.2048 84.7573 64.0213 85.2262 63.739C85.6951 63.4567 86.1787 62.9486 86.6769 62.2146Z" fill="#FC814A"/>
<path d="M88.0397 54.2964C88.7137 54.4093 89.3292 54.494 89.886 54.5505C90.4428 54.5787 90.9117 54.6069 91.2927 54.6352C91.7323 54.6634 92.1133 54.6775 92.4357 54.6775C92.8753 54.6493 93.3881 54.6069 93.9743 54.5505C94.4725 54.494 95.0733 54.4234 95.7766 54.3387C96.5093 54.2541 97.3445 54.1411 98.2823 54C97.8427 54.2258 97.4764 54.4517 97.1833 54.6775C96.8903 54.8751 96.6558 55.0868 96.48 55.3126C96.2748 55.5667 96.1136 55.8067 95.9964 56.0325C95.8499 56.3995 95.6887 57.1616 95.5129 58.319C95.337 59.307 95.1172 60.775 94.8535 62.7228C94.619 64.6706 94.3113 67.31 93.9303 70.641C94.9853 69.6247 95.9818 68.8626 96.9196 68.3544C97.8867 67.8181 98.7366 67.437 99.4693 67.2112C100.319 66.9571 101.11 66.8301 101.843 66.8301C102.752 66.9148 103.675 67.197 104.613 67.6769C105.58 68.1286 106.474 68.6649 107.294 69.286C108.144 69.907 108.877 70.5704 109.492 71.2761C110.137 71.9819 110.591 72.6029 110.855 73.1392C111.031 73.5062 111.119 73.9861 111.119 74.5789C111.119 75.1435 111.06 75.7645 110.943 76.442C110.826 77.1195 110.664 77.8111 110.459 78.5169C110.254 79.2226 110.049 79.886 109.844 80.507C109.668 81.128 109.507 81.6785 109.36 82.1584C109.214 82.6101 109.126 82.9347 109.096 83.1323C109.038 83.5557 109.067 83.9651 109.184 84.3603C109.272 84.699 109.448 85.066 109.712 85.4612C109.976 85.8282 110.371 86.1387 110.899 86.3927C110.489 86.3363 110.049 86.2939 109.58 86.2657C109.14 86.2093 108.716 86.1669 108.305 86.1387C107.836 86.1105 107.367 86.0963 106.898 86.0963H105.316C104.818 86.0963 104.246 86.1105 103.601 86.1387C102.957 86.1387 102.253 86.1528 101.491 86.181C101.902 86.0399 102.253 85.8564 102.546 85.6306C102.84 85.3765 103.089 85.1366 103.294 84.9107C103.528 84.6567 103.733 84.3885 103.909 84.1062C104.026 83.8804 104.173 83.4569 104.349 82.8359C104.525 82.1866 104.686 81.4527 104.832 80.634C104.979 79.7872 105.081 78.8979 105.14 77.9664C105.228 77.0348 105.243 76.1456 105.184 75.2988C105.155 74.4237 105.023 73.6474 104.788 72.9699C104.583 72.2924 104.261 71.7984 103.821 71.4878C102.502 70.5281 101.301 70.0623 100.217 70.0905C99.1615 70.0905 98.1505 70.4998 97.1833 71.3185C96.8317 71.629 96.4946 71.9395 96.1723 72.25C95.8792 72.5323 95.5568 72.8711 95.2051 73.2663C94.8535 73.6332 94.5311 74.0143 94.238 74.4095C94.238 74.833 94.2527 75.2988 94.282 75.8069C94.3113 76.315 94.3406 76.809 94.3699 77.2889C94.3992 77.8252 94.4432 78.3616 94.5018 78.8979C94.5604 79.7166 94.6483 80.5211 94.7655 81.3115C94.8535 81.989 94.9707 82.7371 95.1172 83.5557C95.2638 84.3461 95.4542 85.066 95.6887 85.7152C95.3077 85.6588 94.9121 85.6447 94.5018 85.6729C94.0915 85.6729 93.6958 85.6729 93.3149 85.6729C92.8753 85.7011 92.4503 85.7152 92.04 85.7152C91.659 85.7435 91.2634 85.7858 90.8531 85.8423C90.5014 85.8987 90.1204 85.9552 89.7101 86.0116C89.2999 86.0399 88.9042 86.0963 88.5232 86.181C88.8749 85.5318 89.168 84.8966 89.4024 84.2756C89.6369 83.6263 89.8274 83.0617 89.9739 82.5818C90.1497 82.0173 90.2963 81.4668 90.4135 80.9304C90.5014 80.507 90.56 79.7025 90.5893 78.5169C90.648 77.303 90.6919 75.9198 90.7212 74.3672C90.7505 72.7864 90.7652 71.1209 90.7652 69.3707C90.7652 67.6205 90.7505 65.955 90.7212 64.3741C90.6919 62.7933 90.6333 61.4101 90.5454 60.2245C90.4868 59.0389 90.4135 58.2202 90.3256 57.7686C90.2084 57.3169 90.0472 56.8652 89.842 56.4136C89.6662 56.0184 89.4317 55.6373 89.1387 55.2703C88.8456 54.8751 88.4793 54.5505 88.0397 54.2964Z" fill="#FC814A"/>
<path d="M111.075 64.7552C111.661 64.8399 112.188 64.9105 112.657 64.967C113.097 64.9952 113.492 65.0234 113.844 65.0516C114.225 65.0799 114.591 65.094 114.943 65.094C115.266 65.094 115.676 65.0799 116.174 65.0516C116.584 65.0234 117.112 64.9952 117.757 64.967C118.431 64.9105 119.222 64.8399 120.13 64.7552C120.072 64.8682 119.955 65.221 119.779 65.8138C119.603 66.3784 119.427 67.0841 119.251 67.931C119.075 68.7496 118.914 69.6671 118.768 70.6833C118.65 71.6713 118.592 72.6593 118.592 73.6474C118.621 74.6071 118.753 75.5246 118.987 76.3997C119.222 77.2466 119.603 77.9382 120.13 78.4745C121.244 79.5754 122.226 80.2388 123.076 80.4647C123.955 80.6905 124.717 80.6623 125.362 80.38C126.006 80.0977 126.534 79.6742 126.944 79.1097C127.355 78.5451 127.648 78.0229 127.823 77.543C128.263 76.2444 128.527 74.8753 128.615 73.4356C128.673 72.1936 128.571 70.8104 128.307 69.286C128.043 67.7616 127.413 66.209 126.417 64.6282C127.179 64.6847 127.838 64.727 128.395 64.7552C128.952 64.7835 129.435 64.8117 129.846 64.8399C130.315 64.8682 130.725 64.8964 131.076 64.9246C131.399 64.9528 131.78 64.9528 132.219 64.9246C132.6 64.9246 133.055 64.9105 133.582 64.8823C134.139 64.8258 134.754 64.7694 135.429 64.7129C135.546 67.4793 135.648 69.9494 135.736 72.123C135.824 74.2684 135.883 76.1739 135.912 77.8394C135.971 79.4766 136 80.9022 136 82.1161C136 83.3017 136 84.3038 136 85.1224C135.971 87.0702 135.883 88.3547 135.736 88.9757C135.502 89.8508 135.077 90.7259 134.461 91.601C133.875 92.4761 133.128 93.2524 132.219 93.9299C131.311 94.6356 130.256 95.172 129.054 95.5389C127.882 95.9341 126.593 96.0753 125.186 95.9624C123.808 95.8494 122.709 95.666 121.889 95.4119C121.098 95.1861 120.467 94.9179 119.999 94.6074C119.559 94.2969 119.237 93.9722 119.031 93.6335C118.856 93.2947 118.724 92.9419 118.636 92.5749C118.548 92.2361 118.46 91.9115 118.372 91.601C118.284 91.2905 118.108 91.0223 117.845 90.7965C117.522 90.5424 117.185 90.2883 116.833 90.0343C116.511 89.8084 116.159 89.5826 115.778 89.3568C115.427 89.131 115.075 88.9475 114.723 88.8063L124.087 88.2982C123.823 88.6369 123.633 88.9475 123.515 89.2298C123.398 89.512 123.325 89.752 123.296 89.9496C123.266 90.2037 123.281 90.4154 123.34 90.5847C123.457 90.9235 123.662 91.2905 123.955 91.6857C124.277 92.1091 124.688 92.4337 125.186 92.6596C125.684 92.9136 126.27 92.9983 126.944 92.9136C127.648 92.8289 128.439 92.4761 129.318 91.855C130.051 91.3187 130.666 90.4577 131.164 89.2721C131.575 88.2559 131.897 86.8303 132.132 84.9954C132.366 83.1605 132.322 80.7469 132 77.7547C131.472 79.5049 130.754 80.8457 129.846 81.7773C128.937 82.7089 128.029 83.3864 127.12 83.8098C126.065 84.3179 124.966 84.5861 123.823 84.6143C122.299 84.5579 120.995 84.3744 119.911 84.0639C118.826 83.7251 117.932 83.2734 117.229 82.7089C116.526 82.1443 115.969 81.4809 115.559 80.7187C115.178 79.9283 114.899 79.0532 114.723 78.0934C114.548 77.1336 114.46 76.1739 114.46 75.2141C114.46 74.2261 114.46 73.3086 114.46 72.4617C114.489 71.6149 114.504 70.8527 114.504 70.1752C114.504 69.4695 114.43 68.9049 114.284 68.4815C114.108 68.058 113.873 67.6346 113.58 67.2112C113.346 66.8442 113.024 66.449 112.613 66.0255C112.174 65.5739 111.661 65.1504 111.075 64.7552Z" fill="#FC814A"/>
</svg>
